<svg width="53" height="53" viewBox="0 0 53 53" fill="none" xmlns="http://www.w3.org/2000/svg">
	<circle cx="26.5" cy="26.5" r="26.5" fill="#D3D3D3" />
	<g transform="translate(12.5,11.5) scale(1,0.96774)">
		<path d="M21.2064 7.89463C21.2064 3.93847 17.8916 0.719971 13.8155 0.719971C9.73946 0.719971 6.42615 3.93847 6.42615 7.89463C6.42615 11.8508 9.74097 15.0693 13.8155 15.0693C17.8901 15.0693 21.2064 11.8508 21.2064 7.89463ZM13.8155 13.6057C10.5716 13.6057 7.93357 11.0429 7.93357 7.89463C7.93357 4.74639 10.5731 2.18359 13.8155 2.18359C17.058 2.18359 19.699 4.74639 19.699 7.89463C19.699 11.0429 17.0595 13.6057 13.8155 13.6057Z" fill="#162D3B" />
		<path d="M8.00743 17.6614L7.66072 17.0262L0.180891 20.7145L0 30.7988L1.50742 30.8237L1.67324 21.6205L7.0457 18.9713C7.87779 20.2813 8.93902 21.319 10.1435 21.9966L10.8987 20.7306C9.75303 20.0866 8.75361 19.0255 8.00894 17.6629L8.00743 17.6614Z" fill="#162D3B" />
		<path d="M20.2055 17.0642L19.8603 17.7111C19.1353 19.0708 18.068 20.1349 16.7731 20.7862L17.4665 22.0859C18.8293 21.3994 19.9794 20.3471 20.8281 19.0181L26.3784 21.7771V30.8105H27.8859V20.8813L20.2055 17.0642Z" fill="#162D3B" />
	</g>
</svg>
