<svg width="232" height="23" viewBox="0 0 232 23" fill="none" xmlns="http://www.w3.org/2000/svg">
<path d="M4.53913 19.8694L0 23H7.75402L12.2772 19.8694H4.53913Z" fill="white"/>
<path d="M10.586 15.7083L6.04686 18.8311H19.3133L23.8524 15.7083H10.586Z" fill="white"/>
<path d="M12.0778 14.67H19.8158L28.7505 8.50308V23H33.3455V0L12.0778 14.67Z" fill="white"/>
<path d="M53.4953 1.69904L53.4714 1.11696H48.9003V22.4179L48.9243 23H64.7913V18.9333H53.4953V1.69904Z" fill="white"/>
<path d="M94.2746 14.1036C94.2746 16.0465 93.9157 17.3916 93.2456 17.9973C92.6313 18.5479 92.0091 18.9412 89.5919 18.9412C87.1748 18.9412 86.5685 18.5479 85.9463 17.9973C85.2602 17.3837 84.9092 16.0701 84.9092 14.1036V0.582078H80.3461V15.2757C80.3461 17.9973 81.096 19.9952 82.5718 21.2066C84.0396 22.4179 86.3371 23 89.5919 23C92.8467 23 95.1442 22.4101 96.612 21.2066C98.0878 19.9873 98.8377 17.9894 98.8377 15.2757V0.582078H94.2746V14.1036Z" fill="white"/>
<path d="M114.393 5.18365H121.524V23H126.087V5.18365H133.219V1.11696H114.393V5.18365Z" fill="white"/>
<path d="M148.774 23H164.657V18.9333H153.337V14.0879H161.219V10.0291H153.337V5.18365H164.657V1.11696H148.774V23Z" fill="white"/>
<path d="M196.127 11.6966C197.124 10.5246 197.634 9.10089 197.634 7.46477C197.634 5.49829 196.98 3.9251 195.688 2.80027C194.563 1.81703 193.055 1.26641 191.197 1.14843V1.12483H180.212V23H184.775V14.0958H188.309L193.446 23H198.329L192.968 13.7103C194.236 13.3485 195.297 12.672 196.135 11.6966H196.127ZM193.079 7.65356C193.079 8.44802 192.856 9.05369 192.409 9.46272C192.026 9.81669 191.54 10.0369 190.295 10.0369H184.775V5.19152H190.423C191.492 5.19152 191.947 5.41963 192.409 5.83652C192.824 6.21409 193.079 6.64672 193.079 7.65356Z" fill="white"/>
<path d="M226.631 13.7103C227.9 13.3485 228.969 12.672 229.798 11.6966C230.795 10.5246 231.306 9.10089 231.306 7.46477C231.306 5.49829 230.652 3.9251 229.359 2.80027C228.235 1.81703 226.727 1.26641 224.868 1.14843V1.12483H213.883V23H218.446V14.0958H221.98L227.118 23H232L226.639 13.7103H226.631ZM226.751 7.65356C226.751 8.44802 226.528 9.05369 226.081 9.46272C225.698 9.81669 225.211 10.0369 223.967 10.0369H218.446V5.19152H224.094C225.163 5.19152 225.618 5.41963 226.081 5.83652C226.496 6.21409 226.751 6.64672 226.751 7.65356Z" fill="white"/>
</svg>
